<svg width="7" height="17" viewBox="0 0 7 17" fill="none" xmlns="http://www.w3.org/2000/svg">
<path d="M2.39258 10.0742C2.39258 9.4681 2.46777 8.98503 2.61816 8.625C2.76855 8.26497 3.06478 7.87077 3.50684 7.44238C3.95345 7.00944 4.236 6.70182 4.35449 6.51953C4.53678 6.24154 4.62793 5.94076 4.62793 5.61719C4.62793 5.1888 4.52083 4.86296 4.30664 4.63965C4.09701 4.41178 3.78711 4.29785 3.37695 4.29785C2.98503 4.29785 2.66829 4.40951 2.42676 4.63281C2.18978 4.85156 2.07129 5.15007 2.07129 5.52832H0.410156C0.419271 4.72168 0.692708 4.08366 1.23047 3.61426C1.77279 3.14486 2.48828 2.91016 3.37695 2.91016C4.29297 2.91016 5.00618 3.14258 5.5166 3.60742C6.03158 4.07227 6.28906 4.72168 6.28906 5.55566C6.28906 6.2985 5.94271 7.02995 5.25 7.75L4.40918 8.57715C4.1084 8.91895 3.95345 9.41797 3.94434 10.0742H2.39258ZM2.27637 12.2002C2.27637 11.9313 2.36068 11.7148 2.5293 11.5508C2.69792 11.3822 2.92578 11.2979 3.21289 11.2979C3.50456 11.2979 3.7347 11.3844 3.90332 11.5576C4.07194 11.7262 4.15625 11.9404 4.15625 12.2002C4.15625 12.4508 4.07422 12.6605 3.91016 12.8291C3.74609 12.9977 3.51367 13.082 3.21289 13.082C2.91211 13.082 2.67969 12.9977 2.51562 12.8291C2.35612 12.6605 2.27637 12.4508 2.27637 12.2002Z" fill="#CED9E5"/>
</svg>
