<svg width="15" height="15" viewBox="0 0 15 15" fill="none" xmlns="http://www.w3.org/2000/svg">
<path d="M7.49993 6.92752L14.1202 2.22002C13.8754 2.08462 13.5991 2 13.2999 2H1.69993C1.40073 2 1.12363 2.08462 0.879675 2.22002L7.49993 6.92752Z" fill="#CFD9E6"/>
<path d="M7.94795 8.64199C7.8111 8.72661 7.65555 8.76977 7.5 8.76977C7.34445 8.76977 7.1889 8.72661 7.05205 8.64283L0.00255001 3.66962C0.00255001 3.67724 0 3.68485 0 3.69162V11.3076C0 12.2401 0.76245 13 1.7 13H13.3C14.2376 13 15 12.2401 15 11.3076V3.69162C15 3.68401 14.9974 3.67639 14.9974 3.66878L7.94795 8.64199Z" fill="#CFD9E6"/>
</svg>
