<svg width="15" height="15" viewBox="0 0 15 15" fill="none" xmlns="http://www.w3.org/2000/svg">
<path d="M3 7.5C3 8.32843 2.32843 9 1.5 9C0.671573 9 0 8.32843 0 7.5C0 6.67157 0.671573 6 1.5 6C2.32843 6 3 6.67157 3 7.5Z" fill="#CED9E5"/>
<path d="M15 7.5C15 8.32843 14.3284 9 13.5 9C12.6716 9 12 8.32843 12 7.5C12 6.67157 12.6716 6 13.5 6C14.3284 6 15 6.67157 15 7.5Z" fill="#CED9E5"/>
<path d="M9 7.5C9 8.32843 8.32843 9 7.5 9C6.67157 9 6 8.32843 6 7.5C6 6.67157 6.67157 6 7.5 6C8.32843 6 9 6.67157 9 7.5Z" fill="#CED9E5"/>
<path d="M3 2.5C3 3.32843 2.32843 4 1.5 4C0.671573 4 0 3.32843 0 2.5C0 1.67157 0.671573 1 1.5 1C2.32843 1 3 1.67157 3 2.5Z" fill="#CED9E5"/>
<path d="M15 2.5C15 3.32843 14.3284 4 13.5 4C12.6716 4 12 3.32843 12 2.5C12 1.67157 12.6716 1 13.5 1C14.3284 1 15 1.67157 15 2.5Z" fill="#CED9E5"/>
<path d="M9 2.5C9 3.32843 8.32843 4 7.5 4C6.67157 4 6 3.32843 6 2.5C6 1.67157 6.67157 1 7.5 1C8.32843 1 9 1.67157 9 2.5Z" fill="#CED9E5"/>
<path d="M3 12.5C3 13.3284 2.32843 14 1.5 14C0.671573 14 0 13.3284 0 12.5C0 11.6716 0.671573 11 1.5 11C2.32843 11 3 11.6716 3 12.5Z" fill="#CED9E5"/>
<path d="M15 12.5C15 13.3284 14.3284 14 13.5 14C12.6716 14 12 13.3284 12 12.5C12 11.6716 12.6716 11 13.5 11C14.3284 11 15 11.6716 15 12.5Z" fill="#CED9E5"/>
<path d="M9 12.5C9 13.3284 8.32843 14 7.5 14C6.67157 14 6 13.3284 6 12.5C6 11.6716 6.67157 11 7.5 11C8.32843 11 9 11.6716 9 12.5Z" fill="#CED9E5"/>
</svg>
